<svg xmlns="http://www.w3.org/2000/svg" viewBox="0 0 96 96"><defs><style>.cls-1{fill:#f6f7f9;}.cls-2{fill:#e3e4e8;}.cls-3{opacity:0.6;}.cls-4{fill:#eeeff3;}.cls-5{fill:#ebedf1;}.cls-6{fill:#d2d6de;}.cls-7{fill:#c7ccd4;}.cls-8{fill:#f2f3f6;}.cls-9{fill:#f1f2f5;}.cls-10{fill:#e7e9ee;}.cls-11{fill:#e2e5e9;}.cls-12,.cls-23{fill:#8f95a3;}.cls-12{opacity:0.8;}.cls-13{fill:#c7ccd6;}.cls-14{fill:#b8bfc8;}.cls-15,.cls-18{fill:#a7b0bf;}.cls-16,.cls-19{fill:#8e99a8;}.cls-17{opacity:0.08;}.cls-18,.cls-19{opacity:0.32;}.cls-20{opacity:0.04;}.cls-21{fill:#a5b4bb;}.cls-22{fill:#bdc5cf;}</style></defs><title>通用空状态</title><g id="图层_3" data-name="图层 3"><circle class="cls-1" cx="48" cy="48" r="44"/><path class="cls-1" d="M92,48A44,44,0,1,0,6.63,63H89.37A43.84,43.84,0,0,0,92,48Z"/><path class="cls-2" d="M48,92A44,44,0,0,0,89.37,63H6.63A44,44,0,0,0,48,92Z"/><g class="cls-3"><polygon class="cls-4" points="15.93 42.59 22.44 42.59 22.44 26.32 15.93 42.59"/><polygon class="cls-5" points="22.44 42.59 28.94 42.59 22.44 26.32 22.44 42.59"/></g><g class="cls-3"><polygon class="cls-4" points="70.56 47.43 77.07 47.43 77.07 31.17 70.56 47.43"/><polygon class="cls-5" points="77.07 47.43 83.58 47.43 77.07 31.17 77.07 47.43"/></g><polygon class="cls-6" points="54.88 73.46 65.38 73.46 65.38 47.21 54.88 73.46"/><polygon class="cls-7" points="65.38 73.46 75.88 73.46 65.38 47.21 65.38 73.46"/><polygon class="cls-8" points="51.49 26.02 56.2 26.02 56.2 14.25 51.49 26.02"/><polygon class="cls-9" points="56.2 26.02 60.91 26.02 56.2 14.25 56.2 26.02"/><polygon class="cls-10" points="21.92 49.01 28.93 49.01 28.93 31.48 21.92 49.01"/><polygon class="cls-11" points="28.93 49.01 35.94 49.01 28.93 31.48 28.93 49.01"/><polygon class="cls-12" points="41.3 56.9 41.3 63 39.42 62.73 37.54 60.35 39.82 56.9 41.3 56.9"/><path class="cls-13" d="M16,51.4,9.12,68.6a44.17,44.17,0,0,0,5.15,7.65H16Z"/><polygon class="cls-14" points="25.94 76.25 16 51.41 16 76.25 25.94 76.25"/><path class="cls-15" d="M62,85h9.8A43.76,43.76,0,0,0,76,81.94V50Z"/><path class="cls-16" d="M76,81.94a44.19,44.19,0,0,0,8.83-9.87L76,50Z"/><g class="cls-17"><polygon class="cls-18" points="73.27 43.53 79.88 43.53 79.88 27.02 73.27 43.53"/><polygon class="cls-19" points="79.88 43.53 86.48 43.53 79.88 27.02 79.88 43.53"/></g><g class="cls-20"><polygon class="cls-15" points="35.05 16.33 38.33 16.33 38.33 7.33 35.05 16.33"/><polygon class="cls-16" points="38.33 16.33 41.61 16.33 38.33 7.33 38.33 16.33"/></g><polygon class="cls-16" points="28 59 28.02 59.02 28.03 59 28 59"/><polygon class="cls-21" points="49.58 60.34 40.41 60.34 45 64.92 49.58 60.34 49.58 60.34"/><polygon class="cls-22" points="40.37 60.34 31.2 60.34 35.79 64.92 40.37 60.34 40.37 60.34"/><polygon class="cls-23" points="35.79 64.93 44.96 64.93 40.38 60.35 35.79 64.93"/><polygon class="cls-16" points="44.05 67 44.05 66.99 44.05 66.98 44.03 67 44.05 67"/><polygon class="cls-23" points="38.23 57.07 42.4 57.07 40.32 54.66 38.23 57.07"/></g></svg>