<?xml version="1.0" encoding="utf-8"?>
<!-- Generator: Adobe Illustrator 24.0.1, SVG Export Plug-In . SVG Version: 6.00 Build 0)  -->
<svg version="1.1" id="图层_1" xmlns="http://www.w3.org/2000/svg" xmlns:xlink="http://www.w3.org/1999/xlink" x="0px" y="0px"
	 viewBox="0 0 51 52" style="enable-background:new 0 0 51 52;" xml:space="preserve">
<style type="text/css">
	.st0{fill:#FFFFFF;}
</style>
<path id="施工队" class="st0" d="M22.6,12.2c3.2,0.1,5.8-2.6,5.7-5.8c-0.1-3.1-2.5-5.5-5.5-5.6c-3.2-0.1-5.8,2.6-5.7,5.8
	C17.2,9.7,19.6,12.1,22.6,12.2L22.6,12.2z M16.3,34.9c0,0-6.7-3.3-9.4-4c-0.6-0.1-1.2,0.2-1.3,0.8c-0.8,3.1-4.2,14.4-5.2,18.2
	c-0.2,0.7,0.3,1.4,1.1,1.4h2c0.5,0,0.9-0.3,1-0.7c1.1-2.8,4.4-12.9,4.9-12.9c3.8,0,6.9,4.9,6.8,6.4c-0.2,1.8-1.2,4-2,5.5
	c-0.4,0.8,0.1,1.7,1,1.7h2.2c0.4,0,0.8-0.2,1-0.6c2-3.5,2.7-5.6,2.7-6.9C21,40.7,18,35.7,16.3,34.9z M50.3,48.9l-9.4-18
	c-1.5-2.7-4.7-0.8-6.2,1.9l-4.1,5.8l-2.1-2.1c0-0.3,0-0.6,0-1c-0.7-4.1-3.8-18.1-6-20.3c-0.1-0.1-0.2-0.1-0.3-0.2l-6.9-3.7
	c-0.4-0.2-0.7-0.3-1.1-0.3c-2.4,0.1-7.9,0.9-9.7,1.2c-0.4,0.1-0.7,0.3-0.8,0.6c-0.6,1.1-2.2,3.9-3.1,6c-0.4,0.8-0.2,1.8,0.5,2.5
	l1.2,1l4.1,3.3c0.4,0.3,0.5,0.8,0.4,1.2c-0.4,1.2,0,0.3-0.2,0.9c-0.1,0.6,0.2,1.1,0.7,1.3c1.9,0.7,7,3.4,9,4c0.6,0.2,0.5-0.4,0.7-1
	l-0.2-0.3L29,41.2l-5,8.6c-0.4,0.8,0.1,1.7,1,1.7h23.9C50.2,51.5,51,50.1,50.3,48.9z M10.4,17.4c-0.5,1-1,2.2-1.7,3.8
	c-0.3,0.8-1.2,1-1.8,0.4l-2.2-2.1c-0.1-0.1,0.8-2.2,1.4-3.3c0.2-0.4,0.6-0.6,1-0.6l2.3,0.1C10.2,15.8,10.8,16.7,10.4,17.4L10.4,17.4
	z M18,28.4l1.5-3.7c0.4-1,1.8-0.9,2.1,0.1c0.8,2.6,1.9,6.6,3.1,9.3L18,28.4z"/>
</svg>
