<svg xmlns="http://www.w3.org/2000/svg" xmlns:xlink="http://www.w3.org/1999/xlink" viewBox="0 0 16 16">
  <defs>
    <style>
      .cls-1 {
        fill: none;
      }

      .cls-2 {
        opacity: 0.54;
      }

      .cls-3 {
        clip-path: url(#clip-path);
      }
    </style>
    <clipPath id="clip-path">
      <path class="cls-1" d="M323.42-381h-8v-2h6v-14h-18v14h6v2h-8v-18h22Zm-11-13,4,4h-3v9h-2v-9h-3Zm9,13h-6v-2h6v-14h-18v14h6v2h-6a2,2,0,0,1-2-2v-14a2,2,0,0,1,2-2h18a2,2,0,0,1,2,2v14A2,2,0,0,1,321.42-381Zm-9-13,4,4h-3v9h-2v-9h-3Z"/>
    </clipPath>
  </defs>
  <title>Icon -合作关系_1</title>
  <g id="复杂大型图标">
    <path class="cls-2" d="M10.12,2.08l-2,2L8,4.21l-.11-.12-2-2L.22,7.74,8,15.52H8l7.78-7.78ZM8,14.1,3.05,9.16,1.64,7.74,5.88,3.5l1,1,.38.37-1,1L6,6.24l.58.58.13.12.17.18h0a1.77,1.77,0,0,0,2.58-.06l2.81,2.81-.53.53L10.3,9l-.71.71L11,11.1l-.53.53L9.06,10.22l-.7.7,1.41,1.42-.53.53L7.83,11.45l-.71.71,1.41,1.41L8,14.1Z"/>
  </g>
</svg>
