<?xml version="1.0" encoding="UTF-8"?>
<svg width="96px" height="96px" viewBox="0 0 96 96" version="1.1" xmlns="http://www.w3.org/2000/svg" xmlns:xlink="http://www.w3.org/1999/xlink">
    <!-- Generator: Sketch 52.5 (67469) - http://www.bohemiancoding.com/sketch -->
    <title>空状态/通用空状态_sharp</title>
    <desc>Created with Sketch.</desc>
    <g id="空状态/通用空状态" stroke="none" stroke-width="1" fill="none" fill-rule="evenodd">
        <g id="通用空状态" transform="translate(3.000000, 4.000000)">
            <circle id="圆形" fill="#F6F7F9" cx="45" cy="44" r="44"></circle>
            <path d="M89,44 C88.9936516,26.4466266 78.5547068,10.5763735 62.4388709,3.61930575 C46.323035,-3.33776205 27.6139413,-0.050466672 14.8349548,11.9835876 C2.05596825,24.0176419 -2.34775661,42.4958374 3.63,59 L86.37,59 C88.1150353,54.1917194 89.0051284,49.1151426 89,44 Z" id="Path" fill="#F6F7F9"></path>
            <path d="M45,88 C63.5187046,88.002426 80.0568054,76.4093653 86.37,59 L3.63,59 C9.94319465,76.4093653 26.4812954,88.002426 45,88 Z" id="Path" fill="#E3E4E8"></path>
            <g id="图层成组" opacity="0.6" transform="translate(12.000000, 22.000000)">
                <polygon id="Path" fill="#EEEFF3" points="0.93 16.59 7.44 16.59 7.44 0.32"></polygon>
                <polygon id="Path" fill="#EBEDF1" points="7.44 16.59 13.94 16.59 7.44 0.32"></polygon>
            </g>
            <g id="图层成组" opacity="0.6" transform="translate(67.000000, 27.000000)">
                <polygon id="Path" fill="#EEEFF3" points="0.56 16.43 7.07 16.43 7.07 0.17"></polygon>
                <polygon id="Path" fill="#EBEDF1" points="7.07 16.43 13.58 16.43 7.07 0.17"></polygon>
            </g>
            <polygon id="Path" fill="#D2D6DE" points="51.88 69.46 62.38 69.46 62.38 43.21"></polygon>
            <polygon id="Path" fill="#C7CCD4" points="62.38 69.46 72.88 69.46 62.38 43.21"></polygon>
            <polygon id="Path" fill="#F2F3F6" points="48.49 22.02 53.2 22.02 53.2 10.25"></polygon>
            <polygon id="Path" fill="#F1F2F5" points="53.2 22.02 57.91 22.02 53.2 10.25"></polygon>
            <polygon id="Path" fill="#E7E9EE" points="18.92 45.01 25.93 45.01 25.93 27.48"></polygon>
            <polygon id="Path" fill="#E2E5E9" points="25.93 45.01 32.94 45.01 25.93 27.48"></polygon>
            <polygon id="Path" fill="#8F95A3" opacity="0.8" points="38.3 52.9 38.3 59 36.42 58.73 34.54 56.35 36.82 52.9"></polygon>
            <path d="M13,47.4 L6.12,64.6 C7.5650354,67.3227117 9.29110723,69.8866825 11.27,72.25 L13,72.25 L13,47.4 Z" id="Path" fill="#C7CCD6"></path>
            <polygon id="Path" fill="#B8BFC8" points="22.94 72.25 13 47.41 13 72.25"></polygon>
            <path d="M59,81 L68.8,81 C70.2593799,80.0640989 71.661852,79.0422978 73,77.94 L73,46 L59,81 Z" id="Path" fill="#A7B0BF"></path>
            <path d="M73,77.94 C76.4224131,75.1122271 79.3991669,71.7848703 81.83,68.07 L73,46 L73,77.94 Z" id="Path" fill="#8E99A8"></path>
            <g id="图层成组" opacity="0.08" transform="translate(70.000000, 23.000000)">
                <polygon id="Path" fill="#A7B0BF" opacity="0.32" points="0.27 16.53 6.88 16.53 6.88 0.02"></polygon>
                <polygon id="Path" fill="#8E99A8" opacity="0.32" points="6.88 16.53 13.48 16.53 6.88 0.02"></polygon>
            </g>
            <g id="图层成组" opacity="0.04" transform="translate(32.000000, 3.000000)">
                <polygon id="Path" fill="#A7B0BF" points="0.05 9.33 3.33 9.33 3.33 0.33"></polygon>
                <polygon id="Path" fill="#8E99A8" points="3.33 9.33 6.61 9.33 3.33 0.33"></polygon>
            </g>
            <polygon id="Path" fill="#8E99A8" points="25 55 25.02 55.02 25.03 55"></polygon>
            <polygon id="Path" fill="#A5B4BB" points="46.58 56.34 37.41 56.34 42 60.92 46.58 56.34"></polygon>
            <polygon id="Path" fill="#BDC5CF" points="37.37 56.34 28.2 56.34 32.79 60.92 37.37 56.34"></polygon>
            <polygon id="Path" fill="#8F95A3" points="32.79 60.93 41.96 60.93 37.38 56.35"></polygon>
            <polygon id="Path" fill="#8E99A8" points="41.05 63 41.05 62.99 41.05 62.98 41.03 63"></polygon>
            <polygon id="Path" fill="#8F95A3" points="35.23 53.07 39.4 53.07 37.32 50.66"></polygon>
        </g>
    </g>
</svg>