<svg xmlns="http://www.w3.org/2000/svg" viewBox="0 0 24 24">
  <defs>
    <style>
      .cls-1 {
        fill: #5c85de;
      }

      .cls-2 {
        fill: #85a4e6;
      }

      .cls-3 {
        fill: #3367d6;
      }
    </style>
  </defs>
  <title>Icon -工程公司认证-24</title>
  <g id="复杂大型图标">
    <g>
      <path class="cls-1" d="M21,12H15V6L12,2V6h1V8H12v2h1v2H12v2h1v2H12v2h1v2H12v2h9Zm-2,8H17V18h2Zm0-4H17V14h2Z"/>
      <path class="cls-2" d="M9,8H3V22h9V20H11V18h1V16H11V14h1V12H11V10h1V8H9ZM7,20H5V18H7Zm0-4H5V14H7Zm0-4H5V10H7Z"/>
      <polygon class="cls-2" points="9 7.99 11 7.99 11 5.99 12 5.99 12 2 9 5.99 9 7.99"/>
      <polygon class="cls-1" points="15 7.99 13 7.99 13 5.99 12 5.99 12 2 15 5.99 15 7.99"/>
      <rect class="cls-3" x="12" y="20" width="9" height="1.99"/>
      <rect class="cls-1" x="3" y="20" width="9" height="1.99"/>
      <polygon class="cls-3" points="15 7.99 15 7.45 13 7.99 15 7.99"/>
      <polygon class="cls-3" points="11 7.99 11 7.45 9 7.99 11 7.99"/>
    </g>
  </g>
</svg>
