<svg xmlns="http://www.w3.org/2000/svg" viewBox="0 0 96 96"><defs><style>.cls-1{fill:none;}.cls-2{fill:#787878;}.cls-3{fill:#929292;}.cls-4{fill:#626262;}</style></defs><title>Icon -工程公司认证-96灰</title><g id="复杂大型图标"><rect class="cls-1" x="20" y="54" width="8" height="8"/><rect class="cls-1" x="20" y="38" width="8" height="8"/><rect class="cls-1" x="20" y="70" width="8" height="8"/><rect class="cls-1" x="44" y="70" width="4" height="8"/><rect class="cls-1" x="44" y="38" width="4" height="8"/><rect class="cls-1" x="44" y="54" width="4" height="8"/><rect class="cls-1" x="44" y="22" width="4" height="8"/><path class="cls-2" d="M84,46H60V22L48,10V22h4v8H48v8h4v8H48v8h4v8H48v8h4v8H48v8H84ZM76,78H68V70h8Zm0-16H68V54h8Z"/><rect class="cls-1" x="20" y="38" width="8" height="8"/><rect class="cls-1" x="20" y="54" width="8" height="8"/><rect class="cls-1" x="20" y="70" width="8" height="8"/><path class="cls-3" d="M36,30H12V86H48V78H44V70h4V62H44V54h4V46H44V38h4V30H36ZM28,78H20V70h8Zm0-16H20V54h8Zm0-16H20V38h8Z"/><polygon class="cls-3" points="36 30 44 30 44 22 48 22 48 10 36 22 36 30"/><polygon class="cls-2" points="60 30 52 30 52 22 48 22 48 10 60 22 60 30"/><rect class="cls-4" x="48" y="78" width="36" height="8"/><rect class="cls-2" x="12" y="78" width="36" height="8"/><polygon class="cls-4" points="60 30 60 27.86 52 30 60 30"/><polygon class="cls-4" points="44 30 44 27.86 36 30 44 30"/></g></svg>