<svg xmlns="http://www.w3.org/2000/svg" viewBox="0 0 24 24">
  <defs>
    <style>
      .cls-1 {
        fill: #85a4e6;
      }

      .cls-2 {
        fill: #5c85de;
      }

      .cls-3 {
        fill: #3367d6;
      }
    </style>
  </defs>
  <title>Icon -企业认证</title>
  <g id="复杂大型图标">
    <g>
      <polygon class="cls-1" points="10 16 10 15 3.01 15 3.01 21 12 21 12 16 10 16"/>
      <polygon class="cls-2" points="21 15 14 15 14 16 12 16 12 21 21 21 21 15"/>
      <polygon class="cls-1" points="10 7 8 7 4.75 7 2 7 2 14 10 14 10 12 12 12 12 7 10 7"/>
      <polygon class="cls-2" points="20 7 16 7 14 7 12 7 12 12 14 12 14 14 22 14 22 7 20 7"/>
      <polygon class="cls-1" points="12 5 12 3 10 3 8 5 8 7 10 7 10 5 12 5"/>
      <polygon class="cls-2" points="14 3 12 3 12 5 14 5 14 7 16 7 16 5 14 3"/>
      <polygon class="cls-3" points="10 7 10 6.49 8.08 7 10 7"/>
      <polygon class="cls-3" points="16 7 16 6.49 14.08 7 16 7"/>
    </g>
  </g>
</svg>
