<svg xmlns="http://www.w3.org/2000/svg" viewBox="0 0 96 96"><defs><style>.cls-1{fill:#787878;}.cls-2{fill:none;}.cls-3{fill:#929292;}.cls-4{fill:#c93026;}.cls-5{fill:#626262;}</style></defs><title>Icon -企业认证-96灰</title><g id="复杂大型图标"><path class="cls-1" d="M56,28H40V20H56Zm32,0H64V20l-8-8H40l-8,8v8H8V56H40V48H56v8H88ZM40,64V60H12V84H84V60H56v4Z"/><rect class="cls-2" x="40" y="20" width="8" height="8"/><polygon class="cls-3" points="40 64 40 60 12.04 60 12.04 84 48 84 48 64 40 64"/><polygon class="cls-1" points="84 60 56 60 56 64 48 64 48 84 84 84 84 60"/><polygon class="cls-3" points="40 28 32 28 19 28 8 28 8 56 40 56 40 48 48 48 48 28 40 28"/><polygon class="cls-1" points="80 28 64 28 56 28 48 28 48 48 56 48 56 56 88 56 88 28 80 28"/><polygon class="cls-3" points="48 20 48 12 40 12 32 20 32 28 40 28 40 20 48 20"/><polygon class="cls-4" points="56 12 48 12 48 20 56 20 56 28 64 28 64 20 56 12"/><polygon class="cls-1" points="56 12 48 12 48 20 56 20 56 28 64 28 64 20 56 12"/><polygon class="cls-5" points="40 28 40 25.95 32.33 28 40 28"/><polygon class="cls-5" points="64 28 64 25.95 56.33 28 64 28"/></g></svg>