<?xml version="1.0" encoding="utf-8"?>
<!-- Generator: Adobe Illustrator 24.0.1, SVG Export Plug-In . SVG Version: 6.00 Build 0)  -->
<svg version="1.1" id="图层_1" xmlns="http://www.w3.org/2000/svg" xmlns:xlink="http://www.w3.org/1999/xlink" x="0px" y="0px"
	 viewBox="0 0 48 48" style="enable-background:new 0 0 48 48;" xml:space="preserve">
<style type="text/css">
	.st0{fill:#FFFFFF;}
</style>
<path id="形状" class="st0" d="M0.9,8.6C0.9,4.4,4.4,1,8.6,1s7.7,3.5,7.7,7.7s-3.5,7.7-7.7,7.7S0.9,12.9,0.9,8.6z M39.4,16.3
	c4.2,0,7.7-3.5,7.7-7.7S43.6,1,39.4,1s-7.7,3.5-7.7,7.7S35.1,16.3,39.4,16.3L39.4,16.3z M39.4,20.2c-4.2,0-7.7,3.5-7.7,7.7v3.1
	L24,35.4l-7.7-4.5v-3.1c0-4.2-3.5-7.7-7.7-7.7S1,23.6,1,27.8v17.3C1,46.2,1.8,47,2.9,47h11.5c1.1,0,1.9-0.9,1.9-1.9v-9.7l6.6,3.8
	c0,0,0,0,0.1,0c0.6,0.3,1.3,0.4,1.9,0l6.8-3.9v9.8c0,1.1,0.9,1.9,1.9,1.9h11.5c1.1,0,1.9-0.9,1.9-1.9V27.8
	C47.1,23.6,43.6,20.2,39.4,20.2z"/>
</svg>
