<?xml version="1.0" encoding="utf-8"?>
<!-- Generator: Adobe Illustrator 24.0.1, SVG Export Plug-In . SVG Version: 6.00 Build 0)  -->
<svg version="1.1" id="图层_1" xmlns="http://www.w3.org/2000/svg" xmlns:xlink="http://www.w3.org/1999/xlink" x="0px" y="0px"
	 viewBox="0 0 44 49" style="enable-background:new 0 0 44 49;" xml:space="preserve">
<style type="text/css">
	.st0{fill:#FFFFFF;}
</style>
<path id="形状" class="st0" d="M21.8,23.4c0.1,0.1,0.3,0.1,0.5,0l19.6-11.1L22.2,1c-0.1-0.1-0.3-0.1-0.5,0L2.3,12.2L21.8,23.4
	L21.8,23.4z M20.8,25.9c0-0.2-0.1-0.3-0.2-0.4L1,14.2v22.6c0,0.2,0.1,0.3,0.2,0.4l19.6,11.2V25.9z M16.5,28.5c0,0.4-0.4,0.6-0.7,0.4
	l-8.2-4.8c-0.1-0.1-0.2-0.2-0.2-0.4v-1.5c0-0.4,0.4-0.6,0.7-0.4l8.2,4.8c0.1,0.1,0.2,0.2,0.2,0.4V28.5L16.5,28.5z M23.5,25.5
	c-0.2,0.1-0.2,0.2-0.2,0.4v22.6l19.6-11.2c0.1-0.1,0.2-0.2,0.2-0.4V14.4L23.5,25.5z"/>
</svg>
