<?xml version="1.0" encoding="utf-8"?>
<!-- Generator: Adobe Illustrator 24.0.1, SVG Export Plug-In . SVG Version: 6.00 Build 0)  -->
<svg version="1.1" id="图层_1" xmlns="http://www.w3.org/2000/svg" xmlns:xlink="http://www.w3.org/1999/xlink" x="0px" y="0px"
	 viewBox="0 0 42 48" style="enable-background:new 0 0 42 48;" xml:space="preserve">
<style type="text/css">
	.st0{fill:#FFFFFF;}
</style>
<path id="找资金" class="st0" d="M34.2,13.5l3.2-11.1L28,4.8L21,0l-7,4.8L4.7,2.4l3.2,11.1C3,15.9,0,20.9,0,26.4v16.8
	C0,45.9,2.1,48,4.7,48h32.7c2.6,0,4.7-2.1,4.7-4.8V26.4C42,20.9,39,15.9,34.2,13.5L34.2,13.5z M30.3,31.6h-7V34h7v4.7h-7v4.7h-4.7
	v-4.7h-7V34h7v-2.3h-7v-4.7h4.8l-3.7-3.7l3.3-3.3l4.9,5l4.9-5l3.3,3.3l-3.7,3.7h4.8V31.6z"/>
</svg>
