<?xml version="1.0" encoding="utf-8"?>
<!-- Generator: Adobe Illustrator 24.0.1, SVG Export Plug-In . SVG Version: 6.00 Build 0)  -->
<svg version="1.1" id="图层_1" xmlns="http://www.w3.org/2000/svg" xmlns:xlink="http://www.w3.org/1999/xlink" x="0px" y="0px"
	 viewBox="0 0 43 46" style="enable-background:new 0 0 43 46;" xml:space="preserve">
<style type="text/css">
	.st0{fill:#FFFFFF;}
</style>
<path class="st0" d="M9.5,12.5c0-0.8,0.6-1.4,1.4-1.4h0.6c0.5-5.3,3.9-8.5,8.1-9.1V1.4c0-0.8,0.6-1.4,1.4-1.4c0.8,0,1.4,0.6,1.4,1.4
	V2c4.3,0.6,7.6,3.8,8.1,9.1h0.6c0.8,0,1.4,0.6,1.4,1.4S32,14,31.2,14H11C10.2,14,9.5,13.3,9.5,12.5z M21.1,25.2
	c4.6,0,8.3-3.3,8.3-9.2H12.8C12.8,21.8,16.5,25.2,21.1,25.2z M7.6,28.1C7.6,28.1,7.6,28.1,7.6,28.1C7.6,28.1,7.6,28.1,7.6,28.1
	C7.6,28.1,7.6,28.1,7.6,28.1z M9.2,28L9.2,28c0,0-0.1,0-0.2,0C9,28,9.1,28,9.2,28L9.2,28z M8.7,28c-0.1,0-0.1,0-0.2,0
	c-0.3,0-0.6,0.1-0.9,0.1c0.3,0,0.5-0.1,0.9-0.1C8.5,28.1,8.6,28,8.7,28z M9.7,27.9c-0.1,0-0.2,0-0.3,0l-0.2,0c0.1,0,0.1,0,0.2,0
	C9.5,27.9,9.6,27.9,9.7,27.9z M32.6,27.9c0.1,0,0.1,0,0.2,0c-0.3-0.1-0.6-0.1-0.9-0.2c0.1,0,0.1,0,0.2,0.1l0.4,0.1l0.1,0
	c0,0,0,0-0.1,0L32.6,27.9z M34.6,28.1C34.6,28.1,34.6,28.1,34.6,28.1C34.6,28.1,34.6,28.1,34.6,28.1C34.6,28.1,34.6,28.1,34.6,28.1z
	 M39,29.7c-1.3-0.9-1.8-1.3-4.3-1.6c-1.3,1.8-2.5,4.4-3,7.1c-0.5,2.6-0.7,7.2-0.8,10.7h-4c0.1-3.9,0.4-9.1,1.1-12.3
	c0.6-2.7,1.7-4.8,2.6-6.3c-0.1-0.1-0.3-0.1-0.4-0.2c-0.6-0.2-1.4-0.6-2.6-1.3c-2,3.1-4.5,3.6-6.5,3.5c-2,0.1-4.5-0.5-6.5-3.5
	c-1.2,0.7-2.1,1-2.6,1.3l-0.3,0.1l-0.1,0c0.9,1.5,2,3.7,2.6,6.3c0.7,3.2,1,8.5,1.1,12.3h-4c-0.1-3.5-0.3-8.2-0.8-10.7
	c-0.5-2.7-1.7-5.3-3-7.1c-2.5,0.3-3.1,0.7-4.3,1.6C2.1,30.6,0.7,33.9,0,41.2C-0.2,43.8,1.8,46,4.4,46h33.4c2.6,0,4.6-2.2,4.4-4.8
	C41.6,33.9,40.1,30.6,39,29.7z M33.3,28c0.1,0,0.1,0,0.2,0c0.1,0,0.2,0,0.2,0c0.3,0,0.6,0.1,0.9,0.1c-0.3,0-0.6-0.1-0.9-0.1
	C33.6,28,33.4,28,33.3,28z M30.6,27.3L30.6,27.3c0.2,0.1,0.4,0.2,0.6,0.2C31,27.5,30.8,27.4,30.6,27.3z M32.5,27.9l0.3,0.1l-0.2,0
	C32.6,27.9,32.5,27.9,32.5,27.9z M32.8,27.9C32.8,27.9,32.8,27.9,32.8,27.9c0.1,0,0.2,0,0.2,0c0.1,0,0.2,0,0.3,0
	C33.1,28,33,28,32.8,27.9C32.8,27.9,32.8,27.9,32.8,27.9z"/>
</svg>
