<?xml version="1.0" encoding="utf-8"?>
<!-- Generator: Adobe Illustrator 24.0.1, SVG Export Plug-In . SVG Version: 6.00 Build 0)  -->
<svg version="1.1" id="图层_1" xmlns="http://www.w3.org/2000/svg" xmlns:xlink="http://www.w3.org/1999/xlink" x="0px" y="0px"
	 viewBox="0 0 96 96" style="enable-background:new 0 0 96 96;" xml:space="preserve">
<style type="text/css">
	.st0{fill:#FFFFFF;}
</style>
<path class="st0" d="M48,84H12v-6.2c0-12.3,24-19,36-19l0,0v-0.1h0.4c12.1,0.1,35.6,6.9,35.6,19l0,0V84H48L48,84z M47.7,50.4
	C39.6,50.2,32.8,44.1,32,36l0,0h32c-0.8,8.2-7.8,14.4-16,14.4l0,0H47.7z M48,12L48,12c1.1,0.1,2,0.9,2,2l0,0v0.4
	c7.2,0.9,12.8,6.5,13.8,13.6H66c1.1,0,2,0.9,2,2s-0.9,2-2,2l0,0H30c-1.1,0-2-0.9-2-2s0.9-2,2-2l0,0h2.2c1-7.1,6.7-12.7,13.8-13.6V14
	C46,12.9,46.9,12,48,12L48,12z"/>
</svg>
