<svg id="有色图标" xmlns="http://www.w3.org/2000/svg" xmlns:xlink="http://www.w3.org/1999/xlink" viewBox="0 0 24 24"><defs><style>.cls-1{fill:none;}.cls-2{fill:#55a1ff;}.cls-3{clip-path:url(#clip-path);}</style><clipPath id="clip-path"><path class="cls-1" d="M311.75-315h-8v-2h6v-14h-18v14h6v2h-8v-18h22Zm-11-13,4,4h-3v9h-2v-9h-3Zm9,13h-6v-2h6v-14h-18v14h6v2h-6a2,2,0,0,1-2-2v-14a2,2,0,0,1,2-2h18a2,2,0,0,1,2,2v14A2,2,0,0,1,309.75-315Zm-9-13,4,4h-3v9h-2v-9h-3Z"/></clipPath></defs><title>0Icon - 帮助-24-轮廓</title><path class="cls-2" d="M12,6a4,4,0,0,0-4,4h2a2,2,0,0,1,4,0c0,2-3,1.75-3,5h2c0-2.25,3-2.5,3-5A4,4,0,0,0,12,6Zm0,14a8,8,0,1,1,8-8A8,8,0,0,1,12,20ZM12,2A10,10,0,1,0,22,12,10,10,0,0,0,12,2ZM11,18h2V16H11Z"/></svg>