<svg xmlns="http://www.w3.org/2000/svg" viewBox="0 0 24 24">
  <defs>
    <style>
      .cls-1 {
        fill: #009fe8;
      }

      .cls-2 {
        fill: #fff;
      }
    </style>
  </defs>
  <title>Icon -支付宝</title>
  <g id="复杂大型图标">
    <g id="_编组_" data-name="&lt;编组&gt;">
      <path class="cls-1" d="M19.48,1h-15A3.53,3.53,0,0,0,1,4.52V19.43a3.52,3.52,0,0,0,3.52,3.51h15A3.52,3.52,0,0,0,23,19.43V4.52A3.53,3.53,0,0,0,19.48,1Z"/>
    </g>
    <path id="_复合路径_" data-name="&lt;复合路径&gt;" class="cls-2" d="M19,15c-.9-.3-2.11-.76-3.45-1.24a17.9,17.9,0,0,0,1.87-4.73H13V7.47h5.43V6.58H13V3.93H10.81a.38.38,0,0,0-.39.38V6.58H4.93v.89h5.49V9.06H5.89V10h8.79A15.67,15.67,0,0,1,13.41,13c-2.85-.94-5.89-1.7-7.81-1.23a4.5,4.5,0,0,0-2.47,1.4C1,15.78,2.53,19.69,7,19.69a9.5,9.5,0,0,0,7.19-3.9c2.95,1.41,8.8,3.84,8.8,3.84V16.17A24.42,24.42,0,0,1,19,15ZM6.6,18.19c-3.5,0-4.54-2.74-2.81-4.25A4.54,4.54,0,0,1,6,13.13c2.07-.2,4,.59,6.27,1.69C10.66,16.9,8.63,18.19,6.6,18.19Z"/>
  </g>
</svg>
