<svg xmlns="http://www.w3.org/2000/svg" viewBox="0 0 24 24">
  <defs>
    <style>
      .cls-1 {
        fill: #f0850f;
      }

      .cls-2 {
        fill: #fff;
      }
    </style>
  </defs>
  <title>Icon -余额支付</title>
  <g id="复杂大型图标">
    <g>
      <rect class="cls-1" x="1" y="1" width="22" height="22" rx="3.5" ry="3.5"/>
      <path class="cls-2" d="M19.06,10.06a14.94,14.94,0,0,1-2.12-.54,5.12,5.12,0,0,0-.49-.19v1.22H13.18v1.81h5.39v1.21H13.18v3.58c0,1.25-.6,1.86-1.94,1.82H9.49V17.69h.9c.57,0,.83-.18.79-.66V13.57H5.49V12.36h5.69V10.55H7.61V9.33c-.77.25-1.66.49-2.67.73V9A11.25,11.25,0,0,0,10.88,5h2.3A11.72,11.72,0,0,0,19.06,9ZM5.43,18.3v-1a4,4,0,0,0,2.42-3H9.79C9.34,16.48,7.89,17.82,5.43,18.3ZM12,6.73a14,14,0,0,1-4.36,2.6h8.72A13.4,13.4,0,0,1,12,6.73ZM18.76,18.3c-2.47-.48-3.92-1.82-4.37-4h1.94a4,4,0,0,0,2.43,3Z"/>
    </g>
  </g>
</svg>
