<svg xmlns="http://www.w3.org/2000/svg" viewBox="0 0 24 24">
  <defs>
    <style>
      .cls-1 {
        fill: #949494;
      }

      .cls-2 {
        fill: #cdcdcd;
      }
    </style>
  </defs>
  <title>劳务云icon3-灰色24</title>
  <g id="劳务云">
    <g>
      <path class="cls-1" d="M7.61,7.7c0-3.07,2-4.82,4.39-4.82s4.39,1.75,4.39,4.82"/>
      <rect class="cls-2" x="11.34" y="2" width="1.32" height="3.95" rx="0.66" ry="0.66"/>
      <rect class="cls-2" x="11.34" y="2.44" width="1.32" height="10.53" rx="0.66" ry="0.66" transform="translate(4.3 19.7) rotate(-90)"/>
      <path class="cls-1" d="M15.79,8.36c0,2.65-1.7,4.17-3.79,4.17S8.21,11,8.21,8.36"/>
      <path class="cls-1" d="M20.11,14.6a3.54,3.54,0,0,0-2.36-.76l-.43-.05a5,5,0,0,1-1.18-.35c-.25-.11-.64-.28-1.2-.58A3.14,3.14,0,0,1,12,14.46h0a3.14,3.14,0,0,1-2.94-1.6c-.56.3-1,.47-1.2.58a5,5,0,0,1-1.18.35l-.43.05a3.54,3.54,0,0,0-2.36.76c-.53.39-1.19,1.91-1.48,5.24A2,2,0,0,0,4.4,22H19.6a2,2,0,0,0,2-2.16C21.3,16.51,20.64,15,20.11,14.6Z"/>
      <path class="cls-1" d="M5.85,13.88a3.23,3.23,0,0,0-2,.72c-.53.39-1.19,1.91-1.48,5.24a2,2,0,0,0,2,2.16H7.58a37.25,37.25,0,0,0-.36-4.87A8.77,8.77,0,0,0,5.85,13.88Z"/>
      <path class="cls-2" d="M7.68,13.51a4.87,4.87,0,0,1-1,.28l-.42.05-.41,0a8.77,8.77,0,0,1,1.37,3.25A37.25,37.25,0,0,1,7.58,22h1.8a33.37,33.37,0,0,0-.51-5.6A9.82,9.82,0,0,0,7.68,13.51Z"/>
      <path class="cls-1" d="M16.14,13.44c-.25-.11-.65-.28-1.2-.58A3.14,3.14,0,0,1,12,14.46h0a3.14,3.14,0,0,1-2.94-1.6c-.55.3-1,.47-1.2.58l-.18.07A9.82,9.82,0,0,1,8.87,16.4,33.37,33.37,0,0,1,9.38,22h5.24a33.37,33.37,0,0,1,.51-5.6,9.82,9.82,0,0,1,1.19-2.89Z"/>
      <path class="cls-1" d="M18.15,13.88a3.23,3.23,0,0,1,2,.72c.53.39,1.19,1.91,1.48,5.24a2,2,0,0,1-2,2.16H16.42a37.25,37.25,0,0,1,.36-4.87A8.77,8.77,0,0,1,18.15,13.88Z"/>
      <path class="cls-2" d="M16.32,13.51a4.87,4.87,0,0,0,1,.28l.42.05.41,0a8.77,8.77,0,0,0-1.37,3.25A37.25,37.25,0,0,0,16.42,22h-1.8a33.37,33.37,0,0,1,.51-5.6A9.82,9.82,0,0,1,16.32,13.51Z"/>
    </g>
  </g>
</svg>
