<svg xmlns="http://www.w3.org/2000/svg" viewBox="0 0 24 24">
  <defs>
    <style>
      .cls-1 {
        fill: #85a4e6;
      }

      .cls-2 {
        fill: #5c85de;
      }
    </style>
  </defs>
  <title>Icon -劳务公司认证-24  副本 3</title>
  <g id="复杂大型图标">
    <g>
      <g>
        <path class="cls-1" d="M3,19.44V21h9v-6.3C9,14.68,3,16.37,3,19.44Z"/>
        <g>
          <path class="cls-1" d="M8,9a4,4,0,0,0,4,3.59V9Z"/>
          <path class="cls-1" d="M12,3.56a4,4,0,0,0-4,4A3.29,3.29,0,0,0,8.05,8H12Z"/>
          <path class="cls-2" d="M12,12.59h0A4,4,0,0,0,16,9H12Z"/>
          <path class="cls-2" d="M12,3.56h0V8H16A3.29,3.29,0,0,0,16,7.56,4,4,0,0,0,12,3.56Z"/>
        </g>
        <path class="cls-2" d="M21,19.44c0-3.07-6-4.76-9-4.76h0V21h9Z"/>
      </g>
      <g>
        <path class="cls-2" d="M16.5,7H12V8h4.5a.5.5,0,0,0,0-1Z"/>
        <path class="cls-1" d="M7.5,7a.5.5,0,0,0,0,1H12V7Z"/>
      </g>
      <g>
        <path class="cls-2" d="M12,3V7h.5V3.5A.5.5,0,0,0,12,3Z"/>
        <path class="cls-1" d="M11.5,3.5V7H12V3A.5.5,0,0,0,11.5,3.5Z"/>
      </g>
    </g>
  </g>
</svg>
