<?xml version="1.0" encoding="utf-8"?>
<!-- Generator: Adobe Illustrator 24.0.1, SVG Export Plug-In . SVG Version: 6.00 Build 0)  -->
<svg version="1.1" id="图层_1" xmlns="http://www.w3.org/2000/svg" xmlns:xlink="http://www.w3.org/1999/xlink" x="0px" y="0px"
	 viewBox="0 0 60 33" style="enable-background:new 0 0 60 33;" xml:space="preserve">
<style type="text/css">
	.st0{fill-rule:evenodd;clip-rule:evenodd;fill:#FFFFFF;}
	.st1{fill-rule:evenodd;clip-rule:evenodd;fill:#FFFFFF;stroke:#979797;}
</style>
<path id="Fill-2" class="st0" d="M20.2,0.2l4.3,12.6l4-12.6h22.1c0,0,7.3,0.5,8.4,7.3c1.1,6.8-3.3,9.1-3.3,9.1s4.2,0.2,4.1,7.2
	c-0.1,7-6.6,8.4-6.6,8.4l-15.6,0l0.2-7.8l12.6-0.1l0-4.1H37.8l0.1-7.6l11.6,0l0-4.8L34.3,7.9L24.5,33L14.7,9L20.2,0.2z"/>
<polygon id="Fill-4" class="st0" points="0,0.2 9.5,0.2 17.9,23.8 12.9,33 "/>
<polygon id="Fill-6" class="st1" points="24.5,12.7 24.5,12.8 20.2,0.2 14.7,9 24.5,33 28.1,23.8 "/>
</svg>
