<svg xmlns="http://www.w3.org/2000/svg" viewBox="0 0 96 96"><defs><style>.cls-1{fill:#929292;}.cls-2{fill:#787878;}</style></defs><title>Icon -材料供应商认证-96 灰</title><g id="复杂大型图标"><path class="cls-1" d="M60,68A12,12,0,0,1,72,56V48a20,20,0,0,0,0,40V80A12,12,0,0,1,60,68Z"/><path class="cls-2" d="M74.09,48.11A20.44,20.44,0,0,0,72,48v8a12,12,0,0,1,0,24v8a20,20,0,0,0,2.09-39.89Z"/><path class="cls-1" d="M36,28A12,12,0,0,1,48,16V8a20,20,0,0,0,0,40V40A12,12,0,0,1,36,28Z"/><path class="cls-2" d="M50.09,8.11A20.44,20.44,0,0,0,48,8v8a12,12,0,0,1,0,24v8A20,20,0,0,0,50.09,8.11Z"/><path class="cls-1" d="M12,68A12,12,0,0,1,24,56V48a20,20,0,0,0,0,40V80A12,12,0,0,1,12,68Z"/><path class="cls-2" d="M26.09,48.11A20.44,20.44,0,0,0,24,48v8a12,12,0,0,1,0,24v8a20,20,0,0,0,2.09-39.89Z"/></g></svg>