<svg xmlns="http://www.w3.org/2000/svg" viewBox="0 0 24 24">
  <defs>
    <style>
      .cls-1 {
        fill-rule: evenodd;
      }

      .cls-1, .cls-2 {
        opacity: 0.38;
      }
    </style>
  </defs>
  <title>Icon -文件类型-pdf  副本</title>
  <g id="复杂大型图标">
    <g>
      <polygon class="cls-1" points="14 2 14 4 22 4 22 20 14 20 14 22 24 22 24 2 14 2"/>
      <path class="cls-1" d="M14,3.19,14,0,0,3.28V20.59L14,24l0-3.44ZM10,11.37a3.2,3.2,0,0,1-.7,1.08,3.11,3.11,0,0,1-1.06.7,3.85,3.85,0,0,1-1.38.24l-.53,0-.53,0v3.42L4,16.66V7.05l1.66-.11c.56,0,1.11-.06,1.66-.06a2.82,2.82,0,0,1,2.24.82A3.36,3.36,0,0,1,10.28,10,3.85,3.85,0,0,1,10,11.37Z"/>
      <path class="cls-1" d="M8.25,10.11a1.72,1.72,0,0,1-.38,1.19,1.55,1.55,0,0,1-1.17.4H5.94v-3l.44-.06a2.12,2.12,0,0,1,.44,0A1.39,1.39,0,0,1,7.91,9a1.59,1.59,0,0,1,.34,1.1"/>
      <rect class="cls-2" x="15" y="12" width="6" height="1"/>
      <rect class="cls-2" x="15" y="14" width="6" height="1"/>
      <rect class="cls-2" x="15" y="16" width="6" height="1"/>
    </g>
    <path class="cls-2" d="M20.11,8.31a8.94,8.94,0,0,0-1,.12,5.14,5.14,0,0,1-1-1.34c.27-.93.3-1.58.07-1.87A.53.53,0,0,0,17.67,5a.53.53,0,0,0-.5.27c-.3.5.14,1.48.33,1.88a12.24,12.24,0,0,1-.88,2.08C15,9.9,15,10.33,15,10.48a.5.5,0,0,0,.29.45.51.51,0,0,0,.24.07c.41,0,.89-.47,1.41-1.38a11.54,11.54,0,0,1,2-.64,2,2,0,0,0,1.22.49c.29,0,.84,0,.85-.56C21,8.69,20.89,8.33,20.11,8.31ZM15.5,10.53h-.06a1.38,1.38,0,0,1,.67-.44A1.13,1.13,0,0,1,15.5,10.53Zm2.19-5.07a.1.1,0,0,1,.07,0h.06a1.33,1.33,0,0,1,0,.88A1.28,1.28,0,0,1,17.69,5.46Zm.6,3.22a10,10,0,0,0-1,.32V9h0c.17-.35.32-.72.46-1.08h0v0a5.26,5.26,0,0,0,.62.79h0ZM20.2,9a1.32,1.32,0,0,1-.53-.17,1.72,1.72,0,0,1,.46,0c.33,0,.41.1.43.17A.87.87,0,0,1,20.2,9Z"/>
  </g>
</svg>
