<svg xmlns="http://www.w3.org/2000/svg" viewBox="0 0 96 96"><defs><style>.cls-1{fill:#929292;}.cls-2{fill:#787878;}</style></defs><title>Icon -实名认证-96灰</title><g id="复杂大型图标"><path class="cls-1" d="M20,32A16,16,0,0,0,36,48V16A16,16,0,0,0,20,32Z"/><path class="cls-1" d="M4,74.66V80H36V58.13C25.33,58.13,4,64,4,74.66Z"/><path class="cls-2" d="M52,32A16,16,0,0,0,36,16h0V48h0A16,16,0,0,0,52,32Z"/><path class="cls-2" d="M68,74.66C68,64,46.67,58.13,36,58.13h0V80H68Z"/><rect class="cls-2" x="60" y="20" width="32" height="8"/><rect class="cls-1" x="60" y="20" width="24" height="8"/><rect class="cls-2" x="60" y="36" width="32" height="8"/><rect class="cls-1" x="60" y="36" width="24" height="8"/><path class="cls-1" d="M84,52H66a28.55,28.55,0,0,1,10,6.11A12.76,12.76,0,0,1,77.54,60H84Z"/><rect class="cls-2" x="84" y="52" width="8" height="8"/></g></svg>