<?xml version="1.0" encoding="utf-8"?>
<!-- Generator: Adobe Illustrator 24.0.1, SVG Export Plug-In . SVG Version: 6.00 Build 0)  -->
<svg version="1.1" id="图层_1" xmlns="http://www.w3.org/2000/svg" xmlns:xlink="http://www.w3.org/1999/xlink" x="0px" y="0px"
	 viewBox="0 0 55 44" style="enable-background:new 0 0 55 44;" xml:space="preserve">
<style type="text/css">
	.st0{fill-rule:evenodd;clip-rule:evenodd;fill:#FFFFFF;}
</style>
<path id="复工管理" class="st0" d="M35,33.1c-0.3,0.4-0.9,0.5-1.4,0.2c-0.1-0.1-0.2-0.1-0.2-0.2l-7-9.9
	c-0.2-0.2-0.1-0.5,0.1-0.7c0.1-0.1,0.2-0.1,0.3-0.1h3.4c0.3,0,0.6,0.2,0.8,0.4l3.2,4.6l6.4-9c0.2-0.3,0.5-0.4,0.8-0.4h3.4
	c0.4,0,0.6,0.5,0.4,0.8L35,33.1z M22.1,24.5c0,0.3-0.2,0.5-0.5,0.5H10.3c-0.3,0-0.5-0.2-0.5-0.5v-3c0-0.3,0.2-0.5,0.5-0.5h11.3
	c0.3,0,0.5,0.2,0.5,0.5V24.5z M22.1,33c0,0.3-0.2,0.5-0.5,0.5H10.3c-0.3,0-0.5-0.2-0.5-0.5v-3c0-0.3,0.2-0.5,0.5-0.5h11.3
	c0.3,0,0.5,0.2,0.5,0.5V33z M43.2,4.6V0.5C43.2,0.2,43,0,42.7,0h-3.4c-0.3,0-0.5,0.2-0.5,0.5v4.1h-9.1V0.5c0-0.3-0.2-0.5-0.5-0.5
	h-3.4c-0.3,0-0.5,0.2-0.5,0.5v4.1h-9.1V0.5C16.2,0.2,16,0,15.7,0h-3.4c-0.3,0-0.5,0.2-0.5,0.5v4.1H2c-1.1,0-2,0.9-2,2V42
	c0,1.1,0.9,2,2,2H53c1.1,0,2-0.9,2-2V6.6c0-1.1-0.9-2-2-2H43.2z"/>
</svg>
