<?xml version="1.0" encoding="utf-8"?>
<!-- Generator: Adobe Illustrator 24.0.1, SVG Export Plug-In . SVG Version: 6.00 Build 0)  -->
<svg version="1.1" id="图层_1" xmlns="http://www.w3.org/2000/svg" xmlns:xlink="http://www.w3.org/1999/xlink" x="0px" y="0px"
	 viewBox="0 0 44 44" style="enable-background:new 0 0 44 44;" xml:space="preserve">
<style type="text/css">
	.st0{fill-rule:evenodd;clip-rule:evenodd;fill:#FA541C;}
</style>
<path class="st0" d="M36.5,34H33V23.5C33,17.7,28.3,13,22.5,13S12,17.7,12,23.5V34H7.5C6.7,34,6,34.7,6,35.5S6.7,37,7.5,37h29
	c0.8,0,1.5-0.7,1.5-1.5S37.3,34,36.5,34z M30,34h-8v-9.5c0-0.8-0.7-1.5-1.5-1.5S19,23.7,19,24.5V34h-4V23.5l0-0.2
	c0.1-4,3.4-7.3,7.5-7.3c4.1,0,7.5,3.4,7.5,7.5V34z"/>
<path class="st0" d="M22.5,11c0.8,0,1.5-0.7,1.5-1.5v-2C24,6.7,23.3,6,22.5,6S21,6.7,21,7.5v2C21,10.3,21.7,11,22.5,11z"/>
<path class="st0" d="M33,13.9l1.3-1.5c0.5-0.6,0.4-1.6-0.2-2.1c-0.6-0.5-1.6-0.4-2.1,0.2l-1.3,1.5c-0.5,0.6-0.4,1.6,0.2,2.1
	C31.5,14.6,32.4,14.5,33,13.9z"/>
<path class="st0" d="M40.2,20.9c-0.1-0.8-0.9-1.4-1.7-1.2l-2,0.3c-0.8,0.1-1.4,0.9-1.2,1.7c0.1,0.8,0.9,1.4,1.7,1.2l2-0.3
	C39.8,22.5,40.4,21.7,40.2,20.9z"/>
<path class="st0" d="M9.7,21.7c0.1-0.8-0.4-1.6-1.2-1.7l-2-0.3c-0.8-0.1-1.6,0.4-1.7,1.2s0.4,1.6,1.2,1.7L8,23
	C8.8,23.1,9.6,22.6,9.7,21.7z"/>
<path class="st0" d="M12,13.9c0.5,0.6,1.5,0.7,2.1,0.2c0.6-0.5,0.7-1.5,0.2-2.1L13,10.4c-0.5-0.6-1.5-0.7-2.1-0.2
	c-0.6,0.5-0.7,1.5-0.2,2.1L12,13.9z"/>
</svg>
