<svg id="图层_1" data-name="图层 1" xmlns="http://www.w3.org/2000/svg" viewBox="0 0 96 96"><defs><style>.cls-1{fill:#f6f7f9;}.cls-2{fill:#a6adbd;}.cls-3{fill:#d7dae1;}.cls-4{fill:#feffff;}.cls-5,.cls-9{fill:#f4f6f4;}.cls-6{fill:#a8b2bc;}.cls-7{fill:#9196a9;}.cls-8{fill:#fffeff;}.cls-9{opacity:0.5;}.cls-10{fill:none;}</style></defs><title>搜索无结果</title><circle class="cls-1" cx="48" cy="48" r="44"/><circle class="cls-2" cx="48" cy="15" r="3"/><rect class="cls-2" x="55.6" y="13.85" width="1" height="19.09" transform="translate(-0.11 46.52) rotate(-45)"/><rect class="cls-2" x="39.3" y="13.73" width="1" height="19.95" transform="translate(51.19 68.6) rotate(-135)"/><rect class="cls-3" x="4" y="29" width="90" height="51"/><rect class="cls-4" x="8" y="33" width="82" height="43"/><rect class="cls-5" x="12" y="39" width="35.05" height="4"/><rect class="cls-5" x="12" y="48" width="40.89" height="4"/><rect class="cls-5" x="12" y="57" width="74" height="4"/><rect class="cls-5" x="12" y="66" width="74" height="4"/><rect class="cls-6" x="65.44" y="64.06" width="3" height="20" transform="translate(-32.76 69.03) rotate(-45)"/><rect class="cls-7" x="67.56" y="61.94" width="3" height="20" transform="translate(-30.64 69.9) rotate(-45)"/><circle class="cls-8" cx="49" cy="54" r="19"/><rect class="cls-9" x="32" y="38" width="25" height="11"/><polygon class="cls-9" points="57 72 41 72 35 64 63 64 57 72"/><path class="cls-10" d="M65,54A16,16,0,0,0,49,38V70A16,16,0,0,0,65,54Z"/><path class="cls-7" d="M34.86,39.86l2.83,2.83A16,16,0,0,1,60.31,65.31l2.83,2.83A20,20,0,0,0,34.86,39.86Z"/><path class="cls-6" d="M37.69,65.31a16,16,0,0,1,0-22.62l-2.83-2.83A20,20,0,0,0,63.14,68.14l-2.83-2.83A16,16,0,0,1,37.69,65.31Z"/><circle class="cls-7" cx="40" cy="54" r="2"/><circle class="cls-7" cx="58" cy="54" r="2"/><circle class="cls-7" cx="49" cy="54" r="2"/></svg>