<svg xmlns="http://www.w3.org/2000/svg" viewBox="0 0 96 96"><defs><style>.cls-1{fill:#f6f7f9;}.cls-2{fill:#dfe2e7;}.cls-3{fill:#d2d5da;}.cls-4{fill:#9196a9;}.cls-5{fill:#a8b2bc;}.cls-6{fill:#fff;}.cls-7{fill:#feffff;}.cls-8{fill:#d3d7e0;}.cls-9{fill:#d5dbe1;}.cls-10{fill:#e1e4e8;}.cls-11{fill:#b8bdc3;}.cls-12{fill:#d7dce2;}</style></defs><title>表格无数据</title><g id="图层_3" data-name="图层 3"><circle class="cls-1" cx="48" cy="48" r="44"/><path class="cls-2" d="M30.62,71,23,84.2c1.09.76,2.23,1.47,3.39,2.12L35.24,71Z"/><path class="cls-3" d="M29.46,71,22.18,83.62l.82.58L30.62,71Z"/><path class="cls-3" d="M26.39,86.32l.87.49L36.39,71H35.24Z"/><path class="cls-2" d="M60.76,71l8.85,15.33q1.74-1,3.39-2.13L65.38,71Z"/><path class="cls-3" d="M66.53,71H65.38L73,84.2l.82-.58Z"/><path class="cls-3" d="M59.6,71l9.13,15.81c.3-.15.59-.32.88-.48L60.76,71Z"/><rect class="cls-4" x="48" y="12" width="36" height="50"/><rect class="cls-5" x="12" y="12" width="36" height="50"/><circle class="cls-6" cx="48" cy="59" r="2"/><rect class="cls-7" x="14" y="15" width="68" height="41"/><polygon class="cls-8" points="52 62 48 62 48 71 53 71 52 62"/><polygon class="cls-9" points="44 62 43 71 48 71 48 62 44 62"/><rect class="cls-5" x="36" y="69" width="12" height="2"/><rect class="cls-4" x="48" y="69" width="12" height="2"/><rect class="cls-2" x="11" y="71" width="74" height="7"/><rect class="cls-3" x="11" y="71" width="74" height="1"/><rect class="cls-3" x="11" y="77" width="74" height="1"/><rect class="cls-10" x="72" y="68" width="8" height="3"/><rect class="cls-5" x="16" y="69" width="12" height="2"/><rect class="cls-4" x="16" y="67" width="12" height="2"/><rect class="cls-11" x="20" y="22" width="27" height="8"/><rect class="cls-11" x="49" y="22" width="27" height="8"/><rect class="cls-12" x="20" y="34" width="27" height="6"/><rect class="cls-12" x="49" y="34" width="27" height="6"/><rect class="cls-12" x="20" y="44" width="27" height="6"/><rect class="cls-12" x="49" y="44" width="27" height="6"/></g></svg>