<svg xmlns="http://www.w3.org/2000/svg" viewBox="0 0 24 24">
  <defs>
    <style>
      .cls-1 {
        fill-rule: evenodd;
      }

      .cls-1, .cls-2 {
        opacity: 0.38;
      }
    </style>
  </defs>
  <title>Icon -文件类型-word 副本</title>
  <g id="复杂大型图标">
    <g>
      <path class="cls-1" d="M14,24,0,20.72V3.28L14,0ZM9.85,16l2.09-9-1.8.09L9.08,13c0,.16-.06.32-.08.48A4,4,0,0,0,9,14H9c0-.16,0-.31-.05-.47s0-.32-.07-.48L7.63,7.26l-1.72.1L4.68,12.91a4,4,0,0,0-.09.48,3.87,3.87,0,0,0,0,.48h0c0-.15,0-.31,0-.47s0-.32-.07-.47L3.51,7.5,2,7.6l1.67,8,1.73.1,1.17-5.38s0-.08,0-.11a.62.62,0,0,0,0-.1c0-.12,0-.25,0-.37s0-.25,0-.37h0a3.87,3.87,0,0,0,0,.48c0,.16,0,.31.08.47L8,15.89Z"/>
      <polygon class="cls-1" points="14 2 14 4 22 4 22 20 14 20 14 22 24 22 24 2 14 2"/>
      <rect class="cls-2" x="14" y="6" width="6" height="1"/>
      <rect class="cls-2" x="14" y="8" width="6" height="1"/>
      <rect class="cls-2" x="14" y="10" width="6" height="1"/>
      <rect class="cls-2" x="14" y="12" width="6" height="1"/>
      <rect class="cls-2" x="14" y="14" width="6" height="1"/>
      <rect class="cls-2" x="14" y="16" width="6" height="1"/>
    </g>
  </g>
</svg>
