<svg xmlns="http://www.w3.org/2000/svg" viewBox="0 0 32 32"><defs><style>.cls-1{fill:#929292;}.cls-2{fill:#787878;}</style></defs><title>Icon -组织-复杂版-32灰</title><g id="复杂大型图标"><path class="cls-1" d="M1,2V29H16V2ZM7,26H4V23H7Zm0-6H4V17H7Zm0-6H4V11H7ZM7,8H4V5H7Zm6,18H10V23h3Zm0-6H10V17h3Zm0-6H10V11h3Zm0-6H10V5h3Z"/><polygon class="cls-2" points="16 8 16 11 28 11 28 26 16 26 16 29 31 29 31 26 31 11 31 8 16 8"/><rect class="cls-2" x="16" y="14" width="3" height="3"/><rect class="cls-2" x="16" y="20" width="3" height="3"/><rect class="cls-2" x="22" y="20" width="3" height="3"/><rect class="cls-2" x="22" y="14" width="3" height="3"/></g></svg>